#N canvas 999 454 599 388 12;
#X obj 63 250 dac~;
#X obj 64 198 osc~ 200;
#X obj 62 162 mtof;
#X obj 150 45 bng 15 250 50 0 empty empty empty 17 7 0 10 -262144 -1
-1;
#X floatatom 160 270 5 0 0 0 - - -;
#X floatatom 172 146 5 0 0 0 - - -;
#X floatatom 14 150 5 0 0 0 - - -;
#X floatatom 13 197 5 0 0 0 - - -;
#X obj 59 109 + 48;
#X msg 194 42 stop;
#X obj 302 90 table melody;
#X obj 203 242 tabread melody;
#X obj 160 75 metro 150;
#X obj 163 111 f;
#X obj 205 112 + 1;
#X floatatom 199 209 5 0 0 0 - - -;
#X msg 301 116 \; melody 0 12 3 5 7 10;
#X obj 190 169 % 5;
#X connect 1 0 0 0;
#X connect 1 0 0 1;
#X connect 2 0 1 0;
#X connect 2 0 7 0;
#X connect 3 0 12 0;
#X connect 4 0 8 0;
#X connect 5 0 17 0;
#X connect 8 0 2 0;
#X connect 8 0 6 0;
#X connect 9 0 12 0;
#X connect 11 0 4 0;
#X connect 12 0 13 0;
#X connect 13 0 14 0;
#X connect 13 0 5 0;
#X connect 14 0 13 1;
#X connect 15 0 11 0;
#X connect 17 0 15 0;
